<?xml version="1.0" standalone="no"?>
<!DOCTYPE svg PUBLIC "-//W3C//DTD SVG 20010904//EN"
 "http://www.w3.org/TR/2001/REC-SVG-20010904/DTD/svg10.dtd">
<svg version="1.0" xmlns="http://www.w3.org/2000/svg"
 width="2100.000000pt" height="2100.000000pt" viewBox="0 0 2100.000000 2100.000000"
 preserveAspectRatio="xMidYMid meet">
<metadata>
Created by potrace 1.11, written by Peter Selinger 2001-2013
</metadata>
<g transform="translate(0.000000,2100.000000) scale(0.100000,-0.100000)"
fill="#000000" stroke="none">
<path d="M14117 15414 c-1 -1 -67 -4 -147 -8 -175 -8 -201 -10 -425 -41 -163
-22 -366 -72 -560 -137 -646 -216 -1128 -607 -1413 -1148 -181 -345 -266 -715
-266 -1160 0 -444 76 -804 236 -1125 27 -55 56 -107 64 -116 8 -8 14 -20 14
-25 0 -19 164 -234 245 -322 248 -270 475 -438 797 -591 319 -152 734 -310
1355 -517 379 -127 743 -256 837 -299 17 -7 76 -33 131 -56 268 -115 451 -236
633 -419 148 -148 227 -271 281 -437 59 -181 79 -394 57 -613 -38 -384 -244
-718 -557 -901 -111 -64 -308 -133 -439 -153 -19 -3 -46 -8 -60 -11 -49 -10
-197 -19 -320 -19 -395 -1 -712 85 -988 267 -122 81 -158 110 -256 205 -125
122 -216 251 -301 427 -43 89 -109 273 -118 330 -3 17 -10 57 -15 90 -6 33
-14 96 -17 140 -4 44 -11 82 -15 85 -4 3 -312 5 -684 4 l-677 0 -77 -84 c-42
-46 -80 -91 -84 -100 -12 -32 23 -260 67 -439 134 -539 441 -1028 880 -1400
437 -370 1057 -643 1650 -727 28 -3 59 -8 70 -10 11 -2 47 -7 80 -10 33 -3 71
-8 85 -10 135 -23 745 -22 880 0 14 3 52 7 85 10 181 18 457 79 645 143 611
208 1117 614 1407 1129 123 219 250 570 278 774 12 79 18 116 20 120 2 3 7 50
11 105 14 175 8 512 -12 645 -2 19 -6 49 -8 65 -54 417 -206 785 -451 1090
-118 147 -227 257 -415 419 -55 48 -291 197 -390 248 -89 46 -229 110 -355
163 -16 7 -46 20 -66 29 -168 74 -493 191 -1044 376 -448 151 -683 233 -752
265 -17 8 -34 15 -38 15 -17 0 -329 138 -395 175 -70 40 -101 58 -114 67 -174
123 -321 257 -404 368 -82 111 -150 275 -172 418 -6 37 -13 78 -16 92 -6 34
-5 272 1 340 9 90 35 210 66 296 161 456 631 727 1259 727 64 0 277 -12 306
-17 10 -2 39 -7 64 -11 84 -13 237 -54 316 -85 189 -74 306 -152 449 -295 218
-218 352 -443 414 -695 20 -83 24 -105 37 -182 4 -21 12 -38 18 -39 6 0 314
-1 684 -1 659 -1 673 0 690 19 9 11 42 48 72 83 83 95 81 92 70 147 -5 26 -12
66 -15 88 -6 45 -30 153 -45 205 -61 217 -113 356 -190 509 -82 162 -208 357
-301 466 -176 206 -316 340 -484 463 -38 28 -74 55 -80 60 -5 4 -62 40 -125
78 -492 301 -1088 450 -1828 458 -74 0 -134 0 -135 0z"/>
<path d="M3221 15296 c-4 -6 -38 -62 -75 -124 l-67 -112 47 -93 c25 -50 50
-96 54 -102 4 -5 35 -64 70 -130 87 -166 157 -299 195 -370 18 -33 58 -109 90
-170 32 -60 75 -144 97 -185 22 -41 57 -106 78 -145 20 -38 63 -119 95 -180
32 -60 70 -132 85 -160 15 -27 58 -108 95 -180 37 -71 76 -143 85 -160 16 -27
60 -111 177 -335 19 -36 51 -96 72 -135 20 -38 63 -119 95 -180 32 -60 75
-141 96 -180 20 -38 65 -124 100 -190 34 -66 70 -133 80 -150 10 -16 48 -88
85 -160 37 -71 80 -152 95 -180 15 -27 53 -99 85 -160 32 -60 72 -137 90 -170
18 -33 61 -114 95 -180 34 -66 70 -133 80 -150 10 -16 47 -87 84 -158 36 -70
81 -155 99 -190 19 -34 58 -107 87 -162 58 -111 126 -239 175 -330 18 -33 58
-109 90 -170 32 -60 77 -147 101 -191 24 -45 57 -107 73 -139 l29 -57 0 -1647
0 -1648 87 -84 86 -84 572 0 572 -1 86 86 87 85 -1 1650 0 1650 38 70 c20 39
58 108 82 155 25 47 62 117 83 155 21 39 66 124 100 190 77 147 150 287 200
380 21 39 61 114 89 168 100 190 154 293 191 362 21 39 68 129 105 200 37 72
82 157 100 190 18 33 57 108 88 166 30 59 71 135 90 170 19 35 65 123 102 194
68 130 130 248 190 360 18 33 65 123 105 200 40 77 85 163 100 190 15 28 63
118 106 200 43 83 91 173 105 200 15 28 41 77 58 110 17 33 52 101 79 150 26
50 81 153 121 230 41 77 88 167 106 200 52 97 118 222 185 350 98 187 160 305
195 370 18 33 63 119 100 190 37 72 86 163 108 204 46 86 49 71 -49 232 l-59
95 -702 0 c-386 -1 -703 -3 -705 -6 -3 -3 -64 -124 -137 -270 -74 -146 -263
-521 -421 -835 -390 -773 -795 -1576 -1170 -2320 -172 -341 -313 -621 -314
-622 -2 -2 -104 198 -481 942 -428 844 -553 1091 -690 1360 -78 154 -244 480
-368 725 -124 245 -292 576 -373 736 l-148 290 -713 0 c-492 0 -716 -3 -722
-10z"/>
</g>
</svg>
